<?xml version="1.0" encoding="iso-8859-1"?>
<!-- Generator: Adobe Illustrator 25.4.1, SVG Export Plug-In . SVG Version: 6.00 Build 0)  -->
<svg version="1.1" baseProfile="basic" id="Layer_1"
	 xmlns="http://www.w3.org/2000/svg" xmlns:xlink="http://www.w3.org/1999/xlink" x="0px" y="0px" viewBox="0 0 100 100"
	 xml:space="preserve">
<path style="fill:none;stroke:#000000;stroke-width:4;stroke-linecap:round;stroke-linejoin:round;stroke-miterlimit:10;" d="
	M49.999,15c-20-1-33.985,15.71-35,35c-1,19,15.707,34.035,35,35c20,1,34-16,35-35C86.014,30.71,69.292,15.965,49.999,15z"/>
<path style="fill-rule:evenodd;clip-rule:evenodd;" d="M58.686,35.871c0.276-0.478,0.888-0.642,1.366-0.366
	c0.478,0.276,0.642,0.888,0.366,1.366c-0.276,0.478-0.888,0.642-1.366,0.366C58.574,36.961,58.41,36.349,58.686,35.871z"/>
<path style="fill-rule:evenodd;clip-rule:evenodd;" d="M50.521,34.771c0.276-0.478,0.888-0.642,1.366-0.366
	c0.478,0.276,0.642,0.888,0.366,1.366c-0.276,0.478-0.888,0.642-1.366,0.366C50.409,35.861,50.245,35.249,50.521,34.771z"/>
<path style="fill-rule:evenodd;clip-rule:evenodd;" d="M59.134,41.5c0.276-0.478,0.888-0.642,1.366-0.366
	c0.478,0.276,0.642,0.888,0.366,1.366c-0.276,0.478-0.888,0.642-1.366,0.366C59.022,42.59,58.858,41.978,59.134,41.5z"/>
<path style="fill:none;stroke:#000000;stroke-width:2;stroke-linecap:round;stroke-linejoin:round;stroke-miterlimit:10;" d="
	M58.545,31.095c3.667-1.1,7.643-2.46,12.065-4.196c0.17,4.981-0.402,9.295-1.613,13.034c1.039,2.015,1.613,4.227,1.613,6.546
	c0,9.366-9.359,16.969-20.886,16.969c-11.527,0-20.885-7.604-20.885-16.969c0-2.333,0.581-4.557,1.631-6.581
	c-1.204-3.73-1.771-8.033-1.602-12.999c4.416,1.733,8.387,3.092,12.049,4.191c2.677-1.014,5.661-1.58,8.807-1.58
	C52.876,29.51,55.865,30.078,58.545,31.095z"/>
<path style="fill:none;stroke:#000000;stroke-width:2;stroke-linecap:round;stroke-linejoin:round;stroke-miterlimit:10;" d="
	M39.282,83.334c0,0,0.276-19.886,10.718-19.886c13.054,0,12.167,19.496,12.167,19.496"/>
<path style="fill:none;stroke:#000000;stroke-width:2;stroke-linecap:round;stroke-linejoin:round;stroke-miterlimit:10;" d="
	M24.618,60.449C29.134,61.106,31.611,63.137,33,67l8.892,1.281"/>
<path style="fill:none;stroke:#000000;stroke-width:2;stroke-linecap:round;stroke-linejoin:round;stroke-miterlimit:10;" d="
	M24.618,60.449C27.172,61.847,28.523,63.258,30,70l10,3"/>
<line style="fill:none;stroke:#000000;stroke-width:2;stroke-linecap:round;stroke-linejoin:round;stroke-miterlimit:10;" x1="69" y1="53" x2="84" y2="55"/>
<line style="fill:none;stroke:#000000;stroke-width:2;stroke-linecap:round;stroke-linejoin:round;stroke-miterlimit:10;" x1="30" y1="53" x2="15" y2="55"/>
<line style="fill:none;stroke:#000000;stroke-width:2;stroke-linecap:round;stroke-linejoin:round;stroke-miterlimit:10;" x1="70.639" y1="47.785" x2="85" y2="47.785"/>
<line style="fill:none;stroke:#000000;stroke-width:2;stroke-linecap:round;stroke-linejoin:round;stroke-miterlimit:10;" x1="28.81" y1="47.785" x2="14.927" y2="47.785"/>
<line style="fill:none;stroke:#000000;stroke-width:2;stroke-linecap:round;stroke-linejoin:round;stroke-miterlimit:10;" x1="51" y1="15" x2="47" y2="20"/>
<line style="fill:none;stroke:#000000;stroke-width:2;stroke-linecap:round;stroke-linejoin:round;stroke-miterlimit:10;" x1="56" y1="16" x2="52" y2="22"/>
<line style="fill:none;stroke:#000000;stroke-width:2;stroke-linecap:round;stroke-linejoin:round;stroke-miterlimit:10;" x1="60" y1="18" x2="57" y2="23"/>
<line style="fill:none;stroke:#000000;stroke-width:2;stroke-linecap:round;stroke-linejoin:round;stroke-miterlimit:10;" x1="66" y1="20" x2="63" y2="23"/>
<line style="fill:none;stroke:#000000;stroke-width:2;stroke-linecap:round;stroke-linejoin:round;stroke-miterlimit:10;" x1="42.963" y1="16.245" x2="41.129" y2="20.071"/>
<line style="fill:none;stroke:#000000;stroke-width:2;stroke-linecap:round;stroke-linejoin:round;stroke-miterlimit:10;" x1="78" y1="31" x2="77" y2="35"/>
<line style="fill:none;stroke:#000000;stroke-width:2;stroke-linecap:round;stroke-linejoin:round;stroke-miterlimit:10;" x1="82" y1="36" x2="78" y2="41"/>
<line style="fill:none;stroke:#000000;stroke-width:2;stroke-linecap:round;stroke-linejoin:round;stroke-miterlimit:10;" x1="32" y1="55" x2="36" y2="52"/>
<line style="fill:none;stroke:#000000;stroke-width:2;stroke-linecap:round;stroke-linejoin:round;stroke-miterlimit:10;" x1="36" y1="59" x2="40" y2="55"/>
<line style="fill:none;stroke:#000000;stroke-width:2;stroke-linecap:round;stroke-linejoin:round;stroke-miterlimit:10;" x1="41" y1="61" x2="43" y2="58"/>
<line style="fill:none;stroke:#000000;stroke-width:2;stroke-linecap:round;stroke-linejoin:round;stroke-miterlimit:10;" x1="46" y1="63" x2="47" y2="60"/>
<line style="fill:none;stroke:#000000;stroke-width:2;stroke-linecap:round;stroke-linejoin:round;stroke-miterlimit:10;" x1="51" y1="63" x2="53" y2="59"/>
</svg>